<svg width="154" height="141" viewBox="0 0 154 141" fill="none" xmlns="http://www.w3.org/2000/svg">
<path d="M153.755 53.7218L132.35 2.07058C131.649 0.380225 129.666 -0.439901 127.92 0.237824L117.724 4.19341C116.885 4.51865 116.215 5.1533 115.859 5.95673C115.504 6.76059 115.493 7.66818 115.83 8.47951L116.727 10.6428L103.094 15.9323C101.348 16.6096 100.499 18.5285 101.2 20.2184L102.785 24.0421L12.9743 58.8843C12.1358 59.2095 11.4653 59.8441 11.1096 60.648C10.7548 61.4514 10.7439 62.3595 11.0805 63.1704L13.3741 68.7038L2.14025 73.062C0.393173 73.7393 -0.454928 75.6581 0.245993 77.3481L4.49513 87.601C4.83128 88.4127 5.48723 89.0614 6.31761 89.4051C6.74507 89.5818 7.20115 89.6706 7.65722 89.6706C8.0874 89.6706 8.51759 89.5915 8.92506 89.4337L20.158 85.0755L22.4515 90.6081C22.9848 91.8958 24.2631 92.6786 25.6145 92.6786C26.037 92.6786 26.4653 92.6021 26.8814 92.4408L63.9444 78.0623C65.2263 79.9095 66.9248 81.4623 68.9022 82.6072L45.3675 136.002C44.6293 137.677 45.4338 139.613 47.1641 140.327C47.6006 140.507 48.054 140.592 48.4992 140.592C49.8229 140.592 51.083 139.84 51.6344 138.588L58.3416 123.371H73.437V137.295C73.437 139.115 74.962 140.591 76.844 140.591C78.726 140.591 80.2509 139.115 80.2509 137.295V123.371H95.3441L102.051 138.588C102.603 139.841 103.863 140.592 105.187 140.592C105.632 140.592 106.086 140.507 106.522 140.327C108.252 139.613 109.056 137.677 108.318 136.002L84.7862 82.6125C89.3261 79.9873 92.3737 75.1866 92.3737 69.7081C92.3737 68.8264 92.2901 67.9641 92.1384 67.1237L116.691 57.5991L118.275 61.4224C118.611 62.2342 119.267 62.8829 120.098 63.2266C120.525 63.4033 120.981 63.4921 121.437 63.4921C121.867 63.4921 122.298 63.413 122.705 63.2552L136.337 57.9666L137.234 60.1307C137.769 61.4185 139.047 62.2012 140.397 62.2012C140.82 62.2012 141.249 62.1248 141.664 61.9635L151.861 58.0079C152.701 57.6826 153.371 57.048 153.726 56.2446C154.081 55.4407 154.092 54.5331 153.755 53.7218ZM9.55148 82.0877L7.83847 77.9541L15.9097 74.8231L17.6227 78.9567L9.55148 82.0877ZM61.2484 116.779L73.4379 89.1238V116.779H61.2484ZM92.4391 116.779H80.2518V89.1291L92.4391 116.779ZM76.8449 78.1405C72.0397 78.1405 68.1295 74.3581 68.1295 69.7081C68.1295 65.0589 72.0393 61.2765 76.8449 61.2765C81.65 61.2765 85.5603 65.0585 85.5603 69.7081C85.5598 74.3576 81.65 78.1405 76.8449 78.1405ZM89.516 61.0387C86.7 57.1983 82.0711 54.6839 76.8444 54.6839C68.2817 54.6839 61.3151 61.4237 61.3151 69.7081C61.3151 70.4574 61.3737 71.194 61.4846 71.9144L27.5074 85.0953L18.6725 63.7764L105.32 30.1614L114.155 51.4807L89.516 61.0387ZM123.331 55.9097L108.792 20.8249L119.262 16.7625L130.19 43.1318L133.802 51.8481L123.331 55.9097ZM142.291 54.6179L123.422 9.0856L127.294 7.58335L146.163 53.1157L142.291 54.6179Z" fill="url(#paint0_linear_10_107)"/>
<defs>
<linearGradient id="paint0_linear_10_107" x1="77.0001" y1="0" x2="77.0001" y2="140.592" gradientUnits="userSpaceOnUse">
<stop stop-color="white"/>
<stop offset="1" stop-color="white" stop-opacity="0.45"/>
</linearGradient>
</defs>
</svg>
